<svg width="46" height="56" viewBox="0 0 46 56" fill="none" xmlns="http://www.w3.org/2000/svg">
<path d="M32.908 -0.000244141H22.7344V11.7044H32.908V-0.000244141Z" fill="white"/>
<path d="M22.7342 21.2239H32.9079V37.7315C32.9544 41.7036 31.8239 45.6 29.6602 48.9252C27.5237 52.1559 23.3994 55.9998 15.7692 55.9998C7.45808 55.9998 2.61385 52.0695 0 49.9156L6.41724 41.9998C8.96848 44.0829 11.4258 45.7966 15.8083 45.7966C19.1265 45.7966 20.4491 44.4445 21.2238 43.2654C22.2771 41.6277 22.8219 39.7124 22.789 37.7629L22.7342 21.2239Z" fill="white"/>
<path d="M17.5457 13.8347H7.37207V24.0537H17.5457V13.8347Z" fill="white"/>
<path d="M38.2374 51.2047C38.2374 53.3821 37.134 54.5534 35.5923 54.5534C34.0506 54.5534 33.041 53.162 33.041 51.3147C33.041 49.4675 34.0819 48.0054 35.6783 48.0054C37.2748 48.0054 38.2374 49.4439 38.2374 51.2047ZM34.2227 51.2912C34.2227 52.6039 34.7471 53.5708 35.647 53.5708C36.547 53.5708 37.0557 52.5489 37.0557 51.2126C37.0557 50.0413 36.5861 48.9408 35.647 48.9408C34.7079 48.9408 34.2227 50.002 34.2227 51.2912Z" fill="white"/>
<path d="M40.2563 48.0999V54.4513H39.1294V48.0999H40.2563Z" fill="white"/>
<path d="M41.4771 54.4513V48.0999H42.7292L44.0752 50.7175C44.4218 51.4019 44.7301 52.1053 44.9987 52.8242C44.9283 52.0381 44.897 51.1341 44.897 50.1279V48.0999H45.93V54.4513H44.7639L43.4022 51.7787C43.0417 51.0766 42.7203 50.3549 42.4396 49.617C42.4396 50.4031 42.4944 51.2913 42.4944 52.384V54.4435L41.4771 54.4513Z" fill="white"/>
</svg>
