<svg width="13" height="14" viewBox="0 0 13 14" fill="none" xmlns="http://www.w3.org/2000/svg">
<path d="M5.66764 10.4793V1.16683C5.66764 0.930718 5.7475 0.732802 5.90723 0.573079C6.06695 0.413357 6.26487 0.333496 6.50098 0.333496C6.73709 0.333496 6.93501 0.413357 7.09473 0.573079C7.25445 0.732802 7.33431 0.930718 7.33431 1.16683V10.4793L11.4176 6.396C11.5843 6.22933 11.7788 6.14947 12.001 6.15641C12.2232 6.16336 12.4176 6.25016 12.5843 6.41683C12.7371 6.5835 12.8169 6.77794 12.8239 7.00016C12.8308 7.22238 12.751 7.41683 12.5843 7.5835L7.08431 13.0835C7.00098 13.1668 6.9107 13.2259 6.81348 13.2606C6.71625 13.2953 6.61209 13.3127 6.50098 13.3127C6.38987 13.3127 6.2857 13.2953 6.18848 13.2606C6.09125 13.2259 6.00098 13.1668 5.91764 13.0835L0.417643 7.5835C0.264865 7.43072 0.188477 7.23975 0.188477 7.01058C0.188477 6.78141 0.264865 6.5835 0.417643 6.41683C0.58431 6.25016 0.782227 6.16683 1.01139 6.16683C1.24056 6.16683 1.43848 6.25016 1.60514 6.41683L5.66764 10.4793Z" fill="white"/>
</svg>
