<svg width="13" height="14" viewBox="0 0 13 14" fill="none" xmlns="http://www.w3.org/2000/svg">
<path d="M5.66676 3.52083L1.58342 7.60417C1.41676 7.77083 1.22231 7.85069 1.00009 7.84375C0.777869 7.83681 0.583424 7.75 0.416758 7.58333C0.26398 7.41667 0.184119 7.22222 0.177174 7C0.17023 6.77778 0.250091 6.58333 0.416758 6.41667L5.91676 0.916667C6.00009 0.833333 6.09037 0.774306 6.18759 0.739583C6.28481 0.704861 6.38898 0.6875 6.50009 0.6875C6.6112 0.6875 6.71537 0.704861 6.81259 0.739583C6.90981 0.774306 7.00009 0.833333 7.08342 0.916667L12.5834 6.41667C12.7362 6.56944 12.8126 6.76042 12.8126 6.98958C12.8126 7.21875 12.7362 7.41667 12.5834 7.58333C12.4168 7.75 12.2188 7.83333 11.9897 7.83333C11.7605 7.83333 11.5626 7.75 11.3959 7.58333L7.33342 3.52083V12.8333C7.33342 13.0694 7.25356 13.2674 7.09384 13.4271C6.93412 13.5868 6.7362 13.6667 6.50009 13.6667C6.26398 13.6667 6.06606 13.5868 5.90634 13.4271C5.74662 13.2674 5.66676 13.0694 5.66676 12.8333V3.52083Z" fill="white"/>
</svg>
